<svg width="136" height="65" viewBox="0 0 136 65" fill="none" xmlns="http://www.w3.org/2000/svg">
<path d="M25.625 0.25C11.7813 0.25 0.625 10.5937 0.625 23.2812C0.625 35.9687 11.875 46.3125 25.625 46.3125C39.375 46.3125 50.625 35.9687 50.625 23.2812C50.625 10.5937 39.4375 0.25 25.625 0.25ZM25.625 37.9687C21.9381 37.7509 18.4867 36.0851 16.0225 33.3341C13.5583 30.5831 12.281 26.9698 12.4688 23.2812C12.2639 19.5822 13.5335 15.9528 15.9995 13.1881C18.4655 10.4234 21.9267 8.74885 25.625 8.53125C29.3119 8.74906 32.7633 10.4149 35.2275 13.1659C37.6917 15.9169 38.969 19.5302 38.7812 23.2188C38.969 26.9073 37.6917 30.5206 35.2275 33.2716C32.7633 36.0226 29.3119 37.6884 25.625 37.9062" fill="#008C4F"/>
<path d="M135 32.469C134.947 30.8054 134.531 29.1735 133.781 27.6878C132.996 26.1094 131.824 24.755 130.375 23.7503C129.535 23.1547 128.621 22.6714 127.656 22.3128C129.196 21.6086 130.538 20.5351 131.562 19.1878C132.987 17.0963 133.669 14.5876 133.5 12.0628C133.488 10.594 133.171 9.14376 132.568 7.8042C131.965 6.46464 131.091 5.26502 130 4.28151C127.261 2.1768 123.854 1.13347 120.406 1.34401H95.625V45.094H117.312C120.608 45.1727 123.893 44.6974 127.031 43.6878C129.531 42.9236 131.721 41.3796 133.281 39.2815C134.648 37.2618 135.287 34.8374 135.094 32.4065L135 32.469ZM114.437 8.03151C119.875 8.03151 121.719 9.15651 121.719 13.2503C121.719 16.719 119.594 18.1565 114.625 18.1565H111.719L108.594 26.344H114.844C120.281 26.344 123.125 28.1565 123.125 32.3128C123.125 36.469 120 38.2815 114.594 38.2815H107.437V8.09401L114.437 8.03151Z" fill="#008C4F"/>
<path d="M91.0312 34.4065C88.0972 36.729 84.4608 37.9852 80.7187 37.969C76.6644 38.1041 72.7216 36.6282 69.7525 33.8641C66.7834 31.1 65.0297 27.2726 64.875 23.219C65.0216 19.1625 66.7728 15.3302 69.7437 12.5644C72.7146 9.79854 76.6622 8.32548 80.7187 8.46896C84.4608 8.45271 88.0972 9.70892 91.0312 12.0315V3.09396C87.1473 1.16619 82.8672 0.171067 78.5312 0.187705C64.4062 0.187705 52.9375 10.5002 52.9375 23.219C52.9375 35.9377 64.4062 46.2502 78.5312 46.2502C82.8713 46.2711 87.1548 45.2645 91.0312 43.3127V34.4065Z" fill="#008C4F"/>
<path d="M7.78125 58.9375C7.78125 58.2188 7.78125 57.4688 7.78125 56.75V54.75C7.78125 54.1875 7.78125 53.4375 7.78125 52.5625H6.03125C6.03125 53 6.03125 53.5625 6.03125 54.4063C6.03125 55.25 6.03125 55.9375 6.03125 56.9687V58.5L5.4375 57.4063L4.4375 55.5937L3.5625 54.0312L2.78125 52.5625H0.625C0.625 53.3125 0.625 54.0312 0.625 54.8437V59.0312C0.625 59.8125 0.625 60.5 0.625 61.1562V61.3125H2.4375V61.1562C2.4375 60.3125 2.4375 59.7188 2.4375 59.1875C2.4375 58.6563 2.4375 57.7188 2.4375 56.875V55.2813L5.84375 61.3125H7.96875V61.1562C7.96875 60.4688 7.96875 59.75 7.96875 58.9375" fill="#008C4F"/>
<path d="M12.3125 54.4375C11.8433 54.442 11.3783 54.5266 10.9375 54.6875C10.4962 54.8226 10.0977 55.0703 9.78123 55.4062C9.42486 55.7547 9.15699 56.1832 8.99998 56.6562C8.81401 57.2203 8.72937 57.8127 8.74998 58.4063C8.76004 58.9955 8.90999 59.5739 9.18747 60.0937C9.39836 60.5015 9.72435 60.8384 10.125 61.0625C10.4969 61.2715 10.9171 61.3793 11.3437 61.375C11.7365 61.3783 12.1237 61.2815 12.4687 61.0937C12.6841 60.9613 12.8745 60.7921 13.0312 60.5937C13.0878 61.0294 13.0878 61.4706 13.0312 61.9062C12.9774 62.1661 12.8335 62.3985 12.625 62.5625C12.3813 62.7131 12.0988 62.7891 11.8125 62.7812C11.1 62.7433 10.4007 62.5738 9.74998 62.2812H9.53123L9.68747 64.0312C10.077 64.1422 10.4738 64.2257 10.875 64.2812C11.3119 64.3119 11.7505 64.3119 12.1875 64.2812C12.8833 64.3194 13.57 64.109 14.125 63.6875C14.3826 63.4089 14.575 63.0765 14.6885 62.7144C14.802 62.3523 14.8337 61.9696 14.7812 61.5937C14.7812 59.1562 14.7812 56.875 14.7812 54.875C14.0031 54.6809 13.2074 54.5658 12.4062 54.5313L12.3125 54.4375ZM13.125 58.2812C13.1118 58.6993 12.97 59.1031 12.7187 59.4375C12.6266 59.5587 12.5087 59.658 12.3736 59.7282C12.2386 59.7984 12.0896 59.8379 11.9375 59.8437C11.7659 59.8944 11.5842 59.901 11.4094 59.8627C11.2346 59.8245 11.0722 59.7427 10.9375 59.625C10.6544 59.2961 10.5089 58.8708 10.5312 58.4375C10.493 57.9784 10.5681 57.517 10.75 57.0938C10.8823 56.7954 11.1143 56.5523 11.4062 56.4062C11.6835 56.2542 11.9963 56.1787 12.3125 56.1875C12.54 56.1484 12.7725 56.1484 13 56.1875C13.0559 56.9156 13.0559 57.6469 13 58.375" fill="#008C4F"/>
<path d="M18.25 53.25L18.7188 53.8125H19.9375L19.2188 52.4062H17.2187L16.5938 53.8125H17.8437L18.25 53.25Z" fill="#008C4F"/>
<path d="M20.9375 59.625C20.9375 59 20.9375 58.375 20.9375 57.7187V56.2813C20.9375 55.0625 20.0938 54.4375 18.5938 54.4375C17.7957 54.4458 17.0043 54.5829 16.25 54.8437V56.4062H16.5C16.7974 56.2465 17.1119 56.1207 17.4375 56.0313C17.7834 55.9334 18.1406 55.8809 18.5 55.875C19.25 55.875 19.3437 56.1875 19.3437 56.4375C19.3437 56.6875 19.3438 56.8438 19.125 56.875C18.6929 57.0733 18.243 57.2303 17.7812 57.3438C17.212 57.509 16.681 57.7852 16.2187 58.1563C16.0306 58.3414 15.8877 58.5674 15.801 58.8166C15.7143 59.0659 15.6861 59.3318 15.7187 59.5938C15.7173 59.8561 15.7692 60.1161 15.8713 60.3578C15.9734 60.5995 16.1235 60.818 16.3125 61C16.5186 61.1985 16.7644 61.3513 17.0336 61.4482C17.3029 61.5452 17.5896 61.5841 17.875 61.5625H18.875L19.1563 60L18.875 60.1563C18.875 60.1563 18.5625 60.1562 18.0938 60.3438C17.625 60.5312 17.3438 59.9688 17.3438 59.7188C17.3276 59.6064 17.3423 59.4918 17.3864 59.3872C17.4304 59.2826 17.5021 59.1919 17.5938 59.125C17.9203 58.9335 18.266 58.7764 18.625 58.6563C18.879 58.5891 19.1214 58.4837 19.3437 58.3438C19.3437 59.6875 19.3437 60.6875 19.3437 61.4688V61.625H21.1562V61.4688C21.1562 60.9688 21.1562 60.4688 21.1562 59.9375" fill="#008C4F"/>
<path d="M27.9062 60.1876C27.9062 59.9376 27.9062 59.5001 27.9062 58.8438V56.5001C27.8782 56.125 27.794 55.7563 27.6562 55.4063C27.4955 55.0831 27.2462 54.8122 26.9375 54.6251C26.5514 54.427 26.1213 54.3302 25.6875 54.3438C25.3294 54.3172 24.9704 54.3805 24.643 54.5278C24.3155 54.6752 24.0301 54.9019 23.8125 55.1876V54.5001H22V54.6563C22 56.7188 22 58.8751 22 60.9063V61.0626H23.8438V58.1563C23.8269 57.9275 23.8269 57.6977 23.8438 57.4688C23.8438 56.4376 24.375 55.9688 25.0937 55.9688C25.8125 55.9688 26.0937 56.3438 26.125 57.1563C26.1562 57.9688 26.125 59.5001 26.125 60.9063V61.0626H28.0312V60.9063C28.0312 60.5313 28.0312 60.1876 28.0312 59.9376" fill="#008C4F"/>
<path d="M39.4375 52.5625H37.4375C37.4375 53.25 37.4375 54.3437 37.4375 55.6875H34.3125C34.3125 55.3125 34.3125 54.8438 34.3125 54.2813V52.2812H32.3438C32.3438 53.6562 32.3438 55.0625 32.3438 56.5313C32.3438 58 32.3438 59.4375 32.3438 60.875V61.0312H34.3125V60.75C34.3261 60.521 34.3261 60.2915 34.3125 60.0625V57.1875H37.5938C37.5938 57.8437 37.5938 58.4687 37.5938 59.0625C37.5938 59.6562 37.5938 60.3125 37.5938 60.875V61.0312H39.5938V60.875C39.5938 58.5625 39.5938 55.6562 39.5938 52.2812" fill="#008C4F"/>
<path d="M44.0938 53.9688L43.4062 52.4062H41.3438L42.6563 53.9688H44.0938Z" fill="#008C4F"/>
<path d="M45.6875 59.625V56.2813C45.6875 55.0625 44.8438 54.4375 43.375 54.4375C42.577 54.4458 41.7855 54.5829 41.0313 54.8437V56.4062H41.2812C41.5648 56.2404 41.8697 56.1142 42.1875 56.0313C42.5339 55.9357 42.8908 55.8832 43.25 55.875C44 55.875 44.125 56.1875 44.125 56.4375C44.125 56.6875 44.125 56.8438 43.9063 56.875C43.4741 57.0733 43.0242 57.2303 42.5625 57.3438C41.9903 57.5016 41.4579 57.7785 41 58.1563C40.8119 58.3414 40.6689 58.5674 40.5822 58.8166C40.4955 59.0659 40.4674 59.3318 40.5 59.5938C40.4945 59.8539 40.5415 60.1125 40.6382 60.3541C40.7348 60.5957 40.8791 60.8154 41.0625 61C41.2766 61.1963 41.5281 61.3472 41.802 61.4439C42.0758 61.5406 42.3664 61.5809 42.6563 61.5625H43.625L43.9375 60L43.6563 60.1563C43.4074 60.2912 43.1266 60.356 42.8438 60.3438C42.2188 60.3438 42.125 59.9688 42.125 59.75C42.0985 59.6328 42.1082 59.5102 42.1529 59.3987C42.1975 59.2871 42.275 59.1916 42.375 59.125C42.6984 58.9274 43.0447 58.7699 43.4063 58.6563C43.6529 58.596 43.8861 58.49 44.0938 58.3438C44.0938 59.75 44.0938 60.75 44.0938 61.4688V61.625H45.875V61.4688C45.875 60.9688 45.875 60.4688 45.875 59.9375" fill="#008C4F"/>
<path d="M52.625 60.1876V57.4376C52.6406 57.1565 52.6406 56.8748 52.625 56.5938C52.6279 56.2147 52.5423 55.8402 52.375 55.5001C52.2339 55.1637 51.9797 54.8874 51.6563 54.7188C51.2716 54.5167 50.8404 54.4197 50.4063 54.4376C50.053 54.4134 49.6993 54.478 49.3773 54.6253C49.0553 54.7727 48.7752 54.9982 48.5625 55.2813V54.5938H46.75V54.7501C46.75 56.7501 46.75 58.9063 46.75 61.0001V61.1563H48.625V60.6876C48.6086 60.4795 48.6086 60.2706 48.625 60.0626C48.625 59.6563 48.625 59.3438 48.625 59.0626C48.625 58.7813 48.625 58.5001 48.625 58.2501C48.625 58.0001 48.625 57.7501 48.625 57.5626C48.625 56.5313 49.1875 56.0626 49.9063 56.0626C50.625 56.0626 50.9063 56.4376 50.9375 57.2501C50.9688 58.0626 50.9375 59.5938 50.9375 61.0001V61.1563H52.8438V61.0001C52.8438 60.6251 52.8438 60.3126 52.8438 60.0313" fill="#008C4F"/>
<path d="M56.875 54.4375C56.3954 54.4391 55.9196 54.5236 55.4688 54.6875C55.0314 54.8311 54.6349 55.0775 54.3125 55.4062C53.9562 55.7547 53.6883 56.1832 53.5313 56.6562C53.3412 57.2189 53.2668 57.8141 53.3125 58.4063C53.313 58.9929 53.4522 59.5712 53.7188 60.0937C53.9314 60.5108 54.2705 60.8499 54.6875 61.0625C55.0583 61.2743 55.4793 61.3823 55.9063 61.375C56.2896 61.3816 56.6675 61.2844 57 61.0937C57.218 60.9524 57.4174 60.7844 57.5938 60.5937C57.6529 61.0292 57.6529 61.4707 57.5938 61.9062C57.5729 62.0371 57.5263 62.1625 57.4565 62.2751C57.3868 62.3878 57.2953 62.4855 57.1875 62.5625C56.9438 62.7131 56.6614 62.7891 56.375 62.7812C55.6732 62.7395 54.9848 62.57 54.3438 62.2812H54.0938L54.2813 64.0312C54.6601 64.1425 55.0466 64.226 55.4375 64.2812C55.8745 64.3119 56.3131 64.3119 56.75 64.2812C57.4545 64.3111 58.1483 64.1018 58.7188 63.6875C58.9638 63.4017 59.146 63.0677 59.2537 62.707C59.3613 62.3463 59.392 61.967 59.3438 61.5937C59.3438 59.125 59.3438 56.875 59.3438 54.875C58.5762 54.6813 57.7909 54.5662 57 54.5313L56.875 54.4375ZM57.6563 58.375C57.6321 58.7961 57.4794 59.1996 57.2188 59.5312C57.1266 59.6524 57.0088 59.7517 56.8737 59.822C56.7386 59.8922 56.5897 59.9317 56.4375 59.9375C56.2787 59.9363 56.1218 59.9024 55.9766 59.8379C55.8314 59.7734 55.7011 59.6796 55.5938 59.5625C55.3107 59.2336 55.1652 58.8083 55.1875 58.375C55.1578 57.9133 55.2437 57.4514 55.4375 57.0312C55.5679 56.7417 55.7867 56.501 56.0625 56.3438C56.3409 56.1944 56.6529 56.1191 56.9688 56.125C57.2069 56.088 57.4494 56.088 57.6875 56.125C57.6875 57.1875 57.6875 57.9687 57.6875 58.3125" fill="#008C4F"/>
<path d="M76.0938 59.8437V56.5C76.1029 56.1938 76.0494 55.889 75.9365 55.6042C75.8237 55.3194 75.6539 55.0606 75.4375 54.8437C74.9873 54.4809 74.4216 54.2924 73.8438 54.3125C73.377 54.3048 72.9155 54.4121 72.5 54.625C72.2756 54.7716 72.0841 54.9631 71.9375 55.1875C71.9375 54.2187 71.9375 53.3125 71.9375 52.4375H70.0938C70.0938 55.5625 70.0938 58.3125 70.0938 61.0312V61.1875H71.9688V61.0312C71.9056 60.0427 71.9056 59.0511 71.9688 58.0625C71.9608 57.5284 72.0899 57.0012 72.3438 56.5312C72.4377 56.3872 72.5682 56.2708 72.722 56.1939C72.8757 56.117 73.0472 56.0825 73.2187 56.0937C73.3545 56.0761 73.4926 56.0894 73.6225 56.1327C73.7523 56.176 73.8707 56.2481 73.9688 56.3437C74.1803 56.6216 74.2906 56.9634 74.2812 57.3125C74.2812 58.4062 74.2812 59.6562 74.2812 61.0312V61.1875H76.1875V61.0312C76.1875 60.5937 76.1875 60.1562 76.1875 59.7187" fill="#008C4F"/>
<path d="M96.375 60.1876V57.4376C96.3924 57.1566 96.3924 56.8748 96.375 56.5938C96.3683 56.2191 96.2942 55.8486 96.1562 55.5001C95.9917 55.1693 95.73 54.8967 95.4063 54.7188C95.0232 54.5123 94.5908 54.415 94.1563 54.4376C93.803 54.4134 93.4492 54.478 93.1273 54.6253C92.8053 54.7727 92.5252 54.9982 92.3125 55.2813V54.5938H90.5V54.7501C90.5 56.7813 90.5 58.9376 90.5 61.0001V61.1563H92.375V60.6251C92.3595 60.4379 92.3595 60.2497 92.375 60.0626V58.2501C92.3582 58.0212 92.3582 57.7914 92.375 57.5626C92.375 56.5313 92.9062 56.0626 93.625 56.0626C94.3437 56.0626 94.625 56.4376 94.6563 57.2501C94.6875 58.0626 94.6563 59.5938 94.6563 61.0001V61.1563H96.5625V61.0001C96.5625 60.6563 96.5625 60.3126 96.5625 60.0313" fill="#008C4F"/>
<path d="M100.625 54.4375C100.145 54.4391 99.6696 54.5236 99.2188 54.6875C98.7814 54.8311 98.3849 55.0775 98.0625 55.4062C97.7107 55.7583 97.4435 56.1857 97.2813 56.6562C97.1065 57.2223 97.0325 57.8146 97.0625 58.4063C97.063 58.9929 97.2022 59.5712 97.4688 60.0937C97.6814 60.5108 98.0205 60.8499 98.4375 61.0625C98.8083 61.2743 99.2293 61.3823 99.6563 61.375C100.04 61.3816 100.418 61.2844 100.75 61.0937C100.968 60.9524 101.167 60.7844 101.344 60.5937C101.403 61.0292 101.403 61.4707 101.344 61.9062C101.298 62.1617 101.166 62.3935 100.969 62.5625C100.723 62.7083 100.442 62.784 100.156 62.7812C99.4438 62.7433 98.7445 62.5738 98.0938 62.2812H97.8438L98.0313 64.0312C98.4101 64.1425 98.7966 64.226 99.1875 64.2812C99.6245 64.3119 100.063 64.3119 100.5 64.2812C101.204 64.3111 101.898 64.1018 102.469 63.6875C102.727 63.4099 102.917 63.0766 103.026 62.7135C103.134 62.3505 103.157 61.9673 103.094 61.5937C103.094 59.0625 103.094 56.875 103.094 54.875C102.326 54.6813 101.541 54.5662 100.75 54.5313L100.625 54.4375ZM101.406 58.375C101.368 58.793 101.217 59.1927 100.969 59.5312C100.88 59.6485 100.767 59.7455 100.638 59.8155C100.508 59.8856 100.366 59.9272 100.219 59.9375C100.055 59.9387 99.8927 59.9061 99.7421 59.8415C99.5915 59.777 99.4559 59.682 99.3438 59.5625C99.0607 59.2336 98.9152 58.8083 98.9375 58.375C98.9078 57.9133 98.9937 57.4514 99.1875 57.0312C99.3179 56.7417 99.5367 56.501 99.8125 56.3438C100.091 56.1944 100.403 56.1191 100.719 56.125C100.957 56.0865 101.199 56.0865 101.438 56.125C101.438 57.2187 101.438 57.9687 101.438 58.3125" fill="#008C4F"/>
<path d="M113.813 53.3752C113.481 53.045 113.085 52.7859 112.65 52.614C112.215 52.442 111.749 52.3608 111.281 52.3752H107.625C107.625 53.7189 107.625 54.8752 107.625 55.8439H106.875V57.4064H107.938C107.938 58.6877 107.938 59.8752 107.938 60.9689V61.1252H111.062C111.878 61.1465 112.681 60.9292 113.375 60.5002C113.978 60.0616 114.435 59.4519 114.687 58.7502C114.957 57.9562 115.073 57.1186 115.031 56.2814C115.077 55.1386 114.686 54.0212 113.937 53.1564L113.813 53.3752ZM113 57.8127C112.869 58.2711 112.595 58.676 112.219 58.9689C111.769 59.2757 111.232 59.4291 110.688 59.4064H109.688V57.3439H111.469V55.7502H109.656V53.8127H111.344C111.723 53.7918 112.098 53.9022 112.406 54.1252C112.676 54.3612 112.88 54.6625 113 55.0002C113.145 55.4861 113.188 55.9969 113.125 56.5002C113.161 57.0384 113.098 57.5788 112.937 58.0939" fill="#008C4F"/>
<path d="M121.156 56.0942C120.925 55.5956 120.556 55.173 120.094 54.8755C119.593 54.5782 119.02 54.4267 118.438 54.438C117.849 54.4046 117.266 54.5633 116.775 54.8902C116.285 55.2171 115.914 55.6945 115.719 56.2505C115.469 56.8423 115.362 57.4846 115.406 58.1255C115.426 58.5524 115.51 58.9739 115.656 59.3755C115.783 59.7651 115.984 60.1261 116.25 60.438C116.521 60.7622 116.863 61.019 117.25 61.188C117.66 61.3828 118.109 61.4792 118.563 61.4692C119.198 61.4896 119.823 61.3032 120.344 60.938C120.804 60.6006 121.153 60.1324 121.344 59.5942C121.538 59.0322 121.623 58.4382 121.594 57.8442C121.571 57.2368 121.422 56.6408 121.156 56.0942ZM119.5 59.2192C119.427 59.4051 119.297 59.5629 119.129 59.6697C118.96 59.7765 118.762 59.8267 118.563 59.813C118.375 59.8192 118.189 59.7798 118.02 59.6982C117.852 59.6165 117.705 59.495 117.594 59.3442C117.334 58.9668 117.193 58.5208 117.188 58.063C117.128 57.4986 117.248 56.9297 117.531 56.438C117.626 56.2666 117.767 56.1257 117.939 56.0317C118.11 55.9376 118.305 55.8943 118.5 55.9067C118.685 55.9207 118.863 55.9828 119.017 56.087C119.17 56.1912 119.294 56.3337 119.375 56.5005C119.609 56.9089 119.728 57.3734 119.719 57.8442C119.765 58.3606 119.668 58.8797 119.438 59.3442" fill="#008C4F"/>
<path d="M118.344 53.25L118.781 53.8125H120L119.312 52.4062H117.313L116.688 53.8125H117.906L118.344 53.25Z" fill="#008C4F"/>
<path d="M128.219 60.1876V57.4376C128.234 57.1565 128.234 56.8748 128.219 56.5938C128.212 56.2191 128.138 55.8486 128 55.5001C127.83 55.183 127.583 54.9142 127.281 54.7188C126.884 54.5207 126.444 54.424 126 54.4376C125.647 54.4134 125.293 54.478 124.971 54.6253C124.649 54.7727 124.369 54.9982 124.156 55.2813V54.5938H122.344V54.7501C122.344 56.8126 122.344 58.9688 122.344 61.0001V61.1563H124.219V61.0001C124.219 60.7501 124.219 60.4376 124.219 60.0626V58.2501C124.219 58.0001 124.219 57.7501 124.219 57.5626C124.219 56.5313 124.781 56.0626 125.5 56.0626C126.219 56.0626 126.5 56.4376 126.531 57.2501C126.563 58.0626 126.531 59.5626 126.531 61.0001V61.1563H128.469V61.0001C128.487 60.6774 128.487 60.354 128.469 60.0313" fill="#008C4F"/>
<path d="M135 54.8125C134.232 54.6188 133.447 54.5037 132.656 54.4688C132.187 54.4674 131.72 54.5521 131.281 54.7188C130.831 54.8541 130.423 55.1014 130.094 55.4375C129.742 55.7895 129.475 56.217 129.313 56.6875C129.138 57.2536 129.064 57.8459 129.094 58.4375C129.094 59.0242 129.233 59.6024 129.5 60.125C129.713 60.542 130.052 60.8811 130.469 61.0938C130.84 61.3056 131.261 61.4136 131.688 61.4063C132.08 61.4096 132.468 61.3128 132.813 61.125C133.028 60.9926 133.218 60.8234 133.375 60.625C133.434 61.0605 133.434 61.502 133.375 61.9375C133.36 62.0701 133.315 62.1976 133.245 62.3111C133.175 62.4245 133.081 62.521 132.969 62.5938C132.807 62.694 132.627 62.7597 132.438 62.7866C132.25 62.8135 132.058 62.801 131.875 62.75C131.163 62.7121 130.463 62.5425 129.813 62.25H129.594L129.75 64C130.129 64.1112 130.515 64.1948 130.906 64.25H132.219C132.923 64.2799 133.617 64.0706 134.188 63.6563C134.445 63.3776 134.638 63.0453 134.751 62.6832C134.865 62.3211 134.896 61.9383 134.844 61.5625C134.844 59.0938 134.844 56.8438 134.844 54.8438L135 54.8125ZM133.188 58.2813C133.163 58.7024 133.011 59.1059 132.75 59.4375C132.661 59.5548 132.548 59.6517 132.419 59.7218C132.29 59.7919 132.147 59.8335 132 59.8438C131.836 59.845 131.674 59.8123 131.523 59.7478C131.373 59.6833 131.237 59.5883 131.125 59.4688C130.842 59.1399 130.696 58.7146 130.719 58.2813C130.689 57.8195 130.775 57.3577 130.969 56.9375C131.099 56.648 131.318 56.4073 131.594 56.25C131.882 56.0968 132.205 56.0214 132.531 56.0313C132.759 55.994 132.991 55.994 133.219 56.0313C133.219 57.125 133.219 57.875 133.219 58.2188" fill="#008C4F"/>
<path d="M82.6875 55.9375C83.21 55.7636 83.6532 55.409 83.9375 54.9375C84.0234 54.6967 84.0271 54.4341 83.948 54.191C83.8688 53.9479 83.7113 53.7378 83.5 53.5937C83.2944 53.4609 83.0571 53.3854 82.8125 53.375C82.498 53.3984 82.1957 53.5064 81.9375 53.6875L82.1875 54.375C82.2898 54.3471 82.3977 54.3471 82.5 54.375H82.6563C82.712 54.4464 82.7423 54.5344 82.7423 54.625C82.7423 54.7156 82.712 54.8036 82.6563 54.875C82.6563 54.875 82.6563 54.875 82.6563 55.0313V54.7813H80.8438C80.9063 55.9679 80.9063 57.1571 80.8438 58.3438C80.8438 58.9688 80.5313 59.6875 79.6875 59.6875C78.8438 59.6875 78.7188 59.3125 78.6875 58.5C78.6563 57.6875 78.6875 55.375 78.6875 54.7813H76.8438C76.8438 56.0625 76.8438 57.0313 76.8438 57.9063C76.8438 58.7813 76.8438 58.9688 76.8438 59.4063C76.8336 59.6947 76.8851 59.9821 76.9948 60.2491C77.1044 60.5161 77.2697 60.7567 77.4797 60.9549C77.6896 61.153 77.9394 61.3041 78.2123 61.3981C78.4853 61.4921 78.7751 61.5268 79.0625 61.5C79.4053 61.5261 79.7493 61.4686 80.065 61.3326C80.3807 61.1965 80.6586 60.9859 80.875 60.7188V61.3437H82.5938V61.1875C82.5938 59.5625 82.5938 57.8437 82.5938 55.9687" fill="#008C4F"/>
<path d="M88.9687 55.5937C89.2311 55.4071 89.4453 55.1607 89.5937 54.875C89.6774 54.6388 89.6799 54.3813 89.6006 54.1435C89.5213 53.9058 89.3649 53.7013 89.1562 53.5625C88.9669 53.4205 88.7366 53.3438 88.5 53.3438C88.1756 53.3662 87.863 53.474 87.5937 53.6563L87.8437 54.3437C87.9563 54.3132 88.0749 54.3132 88.1875 54.3437H88.3437C88.3948 54.4171 88.4222 54.5044 88.4222 54.5937C88.4222 54.6831 88.3948 54.7704 88.3437 54.8437C88.2635 54.9411 88.1686 55.0255 88.0625 55.0937C87.5696 54.7756 86.9927 54.6124 86.4062 54.625C86.0059 54.6144 85.6078 54.6867 85.2367 54.8373C84.8657 54.9878 84.5297 55.2135 84.25 55.5C83.9212 55.8788 83.6738 56.3212 83.5233 56.7996C83.3727 57.2781 83.3223 57.7824 83.375 58.2812C83.3538 58.7046 83.419 59.1278 83.5665 59.5252C83.714 59.9225 83.9408 60.2857 84.2332 60.5927C84.5255 60.8996 84.8772 61.1439 85.2669 61.3106C85.6566 61.4773 86.0761 61.563 86.5 61.5625C86.8912 61.5825 87.2824 61.5206 87.6483 61.3807C88.0142 61.2408 88.3469 61.026 88.625 60.75C89.2687 59.9851 89.5833 58.9963 89.5 58C89.4955 57.1651 89.2215 56.354 88.7187 55.6875L88.9687 55.5937ZM87.5 59.625C87.3955 59.7332 87.2687 59.8172 87.1283 59.8712C86.988 59.9252 86.8375 59.9478 86.6875 59.9375C85.7812 59.9375 85.4062 59 85.3437 58.2187C85.2626 57.5769 85.4303 56.9283 85.8125 56.4062C85.9193 56.3013 86.0466 56.2194 86.1863 56.1657C86.3261 56.1119 86.4754 56.0874 86.625 56.0938C87.75 56.0938 87.9375 57.3437 87.9687 57.875C88.0431 58.4969 87.8753 59.1235 87.5 59.625Z" fill="#008C4F"/>
<path d="M69.375 54.8125C69.3479 54.3937 69.2529 53.9821 69.0937 53.5937C68.943 53.2475 68.6929 52.9538 68.375 52.75C68.0658 52.5264 67.694 52.4062 67.3125 52.4063H63.8438C63.8438 53.2188 63.8438 54 63.8438 54.6875C63.8438 55.375 63.8438 56.125 63.8438 56.75V58.9375C63.8438 59.7188 63.8438 60.4063 63.8438 61V61.1562H65.6875V61C65.6875 60.375 65.5313 55.0625 65.5313 54.5625V53.875H66.5313C66.7952 53.8521 67.0592 53.9181 67.2813 54.0625C67.3725 54.157 67.4422 54.2703 67.4853 54.3944C67.5285 54.5185 67.5442 54.6505 67.5312 54.7813C67.5676 55.114 67.4784 55.4483 67.2813 55.7187C67.0842 55.9244 66.8304 56.0669 66.5522 56.1281C66.2741 56.1893 65.984 56.1665 65.7188 56.0625L66.0625 57.625C66.8168 57.7625 67.5954 57.6179 68.25 57.2187C68.6537 56.9599 68.9611 56.5756 69.125 56.125C69.2934 55.6762 69.3679 55.1975 69.3438 54.7188" fill="#008C4F"/>
</svg>
